<svg width="100" height="100" viewBox="0 0 100 100" fill="none" xmlns="http://www.w3.org/2000/svg">
  <path d="M10 20C10 14.4772 14.4772 10 20 10H80C85.5228 10 90 14.4772 90 20V70C90 75.5228 85.5228 80 80 80H30L10 95V20Z" fill="#E10600"/>
  <g clip-path="url(#clip0)">
    <rect x="25" y="30" width="10" height="10" fill="white"/>
    <rect x="35" y="30" width="10" height="10" fill="black"/>
    <rect x="45" y="30" width="10" height="10" fill="white"/>
    <rect x="55" y="30" width="10" height="10" fill="black"/>
    <rect x="65" y="30" width="10" height="10" fill="white"/>
    
    <rect x="25" y="40" width="10" height="10" fill="black"/>
    <rect x="35" y="40" width="10" height="10" fill="white"/>
    <rect x="45" y="40" width="10" height="10" fill="black"/>
    <rect x="55" y="40" width="10" height="10" fill="white"/>
    <rect x="65" y="40" width="10" height="10" fill="black"/>
    
    <rect x="25" y="50" width="10" height="10" fill="white"/>
    <rect x="35" y="50" width="10" height="10" fill="black"/>
    <rect x="45" y="50" width="10" height="10" fill="white"/>
    <rect x="55" y="50" width="10" height="10" fill="black"/>
    <rect x="65" y="50" width="10" height="10" fill="white"/>
  </g>
  <defs>
    <clipPath id="clip0">
      <rect x="25" y="30" width="50" height="30" rx="2" fill="white"/>
    </clipPath>
  </defs>
</svg>
